#N canvas 849 185 467 300 10;
#X obj 37 84 metro 500;
#X floatatom 38 127 5 0 0 0 - - -;
#X msg 96 129 127;
#X msg 141 130 320;
#X obj 89 177 makenote;
#X obj 92 244 noteout;
#X msg 196 211 1;
#X obj 135 29 bng 15 250 50 1 empty empty empty 17 7 0 10 -262144 -1
-1;
#X text 242 20 Media|MIDI Settings pour configurer;
#X connect 0 0 1 0;
#X connect 1 0 4 0;
#X connect 2 0 4 1;
#X connect 3 0 4 2;
#X connect 4 0 5 0;
#X connect 4 1 5 1;
#X connect 6 0 5 2;
#X connect 7 0 0 0;
#X connect 7 0 2 0;
#X connect 7 0 3 0;
#X connect 7 0 6 0;
