#N canvas 683 0 667 417 10;
#X obj 121 25 dumpOSC 8000;
#X obj 121 57 OSCroute /iisu;
#X obj 121 89 OSCroute /user1;
#X msg 133 230 127;
#X msg 165 253 320;
#X obj 88 337 noteout;
#X msg 136 308 1;
#X text 263 22 Open dialog box in menu 'Media|MIDI Settings' in order
to configure the MIDI output. You need a MIDI link such as MIDI Ox
(formerly known as MIDI Yoke) \, LoopBe1 (from http://nerds.de) or
Osculator (under OSX) in order to link to your usual DAW.;
#X obj 88 204 spigot;
#X floatatom 139 149 5 0 0 0 - - -;
#X floatatom 188 150 5 0 0 0 - - -;
#X msg 63 173 70;
#X obj 55 112 bng 15 250 50 0 empty empty empty 17 7 0 10 -262144 -1
-1;
#X obj 121 121 OSCroute /KickBeat /NoteHeight;
#X msg 231 167 127;
#X msg 266 167 320;
#X obj 209 265 noteout;
#X msg 257 236 2;
#X obj 209 210 makenote 127 320;
#X obj 88 282 makenote 127 320;
#X connect 0 0 1 0;
#X connect 1 0 2 0;
#X connect 2 0 13 0;
#X connect 3 0 19 1;
#X connect 4 0 19 2;
#X connect 6 0 5 2;
#X connect 8 0 19 0;
#X connect 11 0 8 0;
#X connect 12 0 11 0;
#X connect 13 0 8 1;
#X connect 13 0 9 0;
#X connect 13 0 11 0;
#X connect 13 0 3 0;
#X connect 13 0 4 0;
#X connect 13 0 6 0;
#X connect 13 1 10 0;
#X connect 13 1 14 0;
#X connect 13 1 15 0;
#X connect 13 1 17 0;
#X connect 13 1 18 0;
#X connect 14 0 18 1;
#X connect 15 0 18 2;
#X connect 17 0 16 2;
#X connect 18 0 16 0;
#X connect 18 1 16 1;
#X connect 19 0 5 0;
#X connect 19 1 5 1;
