#N canvas 682 87 667 417 10;
#X obj 121 25 dumpOSC 8000;
#X obj 121 57 OSCroute /iisu;
#X obj 121 89 OSCroute /user1;
#X msg 85 266 127;
#X msg 132 266 320;
#X obj 39 353 noteout;
#X text 263 22 Open dialog box in menu 'Media|MIDI Settings' in order
to configure the MIDI output. You need a MIDI link such as MIDI Ox
(formerly known as MIDI Yoke) \, LoopBe1 (from http://nerds.de) or
Osculator (under OSX) in order to link to your usual DAW.;
#X obj 39 266 spigot;
#X floatatom 19 163 5 0 0 0 - - -;
#X floatatom 151 163 5 0 0 0 - - -;
#X msg 39 228 70;
#X msg 418 266 127;
#X msg 465 266 320;
#X obj 372 353 noteout;
#X obj 372 298 makenote 127 320;
#X obj 39 298 makenote 127 320;
#X obj 120 121 OSCroute /Kick /HiHat /NoteHeight;
#X msg 255 266 127;
#X msg 302 266 320;
#X obj 209 353 noteout;
#X obj 209 298 makenote 127 320;
#X floatatom 354 163 5 0 0 0 - - -;
#X msg 441 342 3;
#X msg 87 324 1;
#X msg 277 335 2;
#X msg 209 228 49;
#X obj 209 266 spigot;
#X connect 0 0 1 0;
#X connect 1 0 2 0;
#X connect 2 0 16 0;
#X connect 3 0 15 1;
#X connect 4 0 15 2;
#X connect 7 0 15 0;
#X connect 10 0 7 0;
#X connect 11 0 14 1;
#X connect 12 0 14 2;
#X connect 14 0 13 0;
#X connect 14 1 13 1;
#X connect 15 0 5 0;
#X connect 15 1 5 1;
#X connect 16 0 7 1;
#X connect 16 0 8 0;
#X connect 16 0 10 0;
#X connect 16 0 3 0;
#X connect 16 0 4 0;
#X connect 16 0 23 0;
#X connect 16 1 9 0;
#X connect 16 1 25 0;
#X connect 16 1 17 0;
#X connect 16 1 18 0;
#X connect 16 1 24 0;
#X connect 16 1 26 1;
#X connect 16 2 12 0;
#X connect 16 2 11 0;
#X connect 16 2 14 0;
#X connect 16 2 22 0;
#X connect 16 2 21 0;
#X connect 17 0 20 1;
#X connect 18 0 20 2;
#X connect 20 0 19 0;
#X connect 20 1 19 1;
#X connect 22 0 13 2;
#X connect 23 0 5 2;
#X connect 24 0 19 2;
#X connect 25 0 26 0;
#X connect 26 0 20 0;
