#N canvas 678 0 667 710 10;
#X obj 19 -63 dumpOSC 8000;
#X obj 19 -30 OSCroute /iisu;
#X obj 19 8 OSCroute /user1 /user2;
#X obj 19 89 OSCroute /positions /confidences;
#X obj 19 127 OSCroute /pelvis /waist /collar /neck /head /rightShoulder
/rightElbow /rightWrist /rightHand /rightHip /rightKnee /rightAnkle
/rightFoot /leftShoulder /leftElbow /leftWrist /leftHand /leftHip /leftKnee
/leftAnkle /leftFoot;
#X obj 150 209 OSCroute /x /y /z;
#X obj 418 103 grid rightHandGrid 200 0 200 200 0 200 0 0.1 0.1 10
10 460.515 177.641;
#X text 254 -70 iisuOSCBridge demo;
#X text 254 -28 www.softkinetic.com;
#X text 254 -48 iisu to Pd via OSC;
#X obj 432 17 pack float float;
#X obj 19 50 OSCroute /centroids /status /joints;
#X obj 418 330 print x;
#X obj 611 330 print y;
#X msg 432 51 goto \$1 \$2;
#X obj 382 76 print;
#X obj 35 209 OSCroute /x /y /z;
#X obj 149 274 -;
#X obj 80 274 -;
#X obj 80 346 / 1.1;
#X obj 149 310 + 1.1;
#X obj 149 345 / 2.2;
#X obj 80 309 * -1;
#X obj 80 381 * 200;
#X obj 149 381 * 200;
#X obj 149 420 - 200;
#X obj 106 420 print;
#X connect 0 0 1 0;
#X connect 1 0 2 0;
#X connect 2 0 11 0;
#X connect 3 0 4 0;
#X connect 4 2 16 0;
#X connect 4 8 5 0;
#X connect 5 0 18 0;
#X connect 5 2 17 0;
#X connect 6 0 12 0;
#X connect 6 1 13 0;
#X connect 10 0 14 0;
#X connect 11 2 3 0;
#X connect 14 0 6 0;
#X connect 14 0 15 0;
#X connect 16 0 18 1;
#X connect 16 2 17 1;
#X connect 17 0 20 0;
#X connect 18 0 22 0;
#X connect 19 0 23 0;
#X connect 20 0 21 0;
#X connect 21 0 24 0;
#X connect 22 0 19 0;
#X connect 23 0 10 0;
#X connect 24 0 25 1;
#X connect 24 0 26 0;
#X connect 25 0 10 1;
#X coords 0 0 1 1 85 60 0;
